<?xml version="1.0" encoding="UTF-8" standalone="no"?>
<svg
   xmlns:dc="http://purl.org/dc/elements/1.1/"
   xmlns:cc="http://creativecommons.org/ns#"
   xmlns:rdf="http://www.w3.org/1999/02/22-rdf-syntax-ns#"
   xmlns:svg="http://www.w3.org/2000/svg"
   xmlns="http://www.w3.org/2000/svg"
   xmlns:sodipodi="http://sodipodi.sourceforge.net/DTD/sodipodi-0.dtd"
   xmlns:inkscape="http://www.inkscape.org/namespaces/inkscape"
   version="1.1"
   width="287.32901pt"
   height="208.914pt"
   viewBox="0 0 287.329 208.914"
   id="svg264"
   sodipodi:docname="gtionline.svg"
   inkscape:version="1.0.1 (3bc2e813f5, 2020-09-07)">
  <metadata
     id="metadata270">
    <rdf:RDF>
      <cc:Work
         rdf:about="">
        <dc:format>image/svg+xml</dc:format>
        <dc:type
           rdf:resource="http://purl.org/dc/dcmitype/StillImage" />
        <dc:title></dc:title>
      </cc:Work>
    </rdf:RDF>
  </metadata>
  <defs
     id="defs268" />
  <sodipodi:namedview
     pagecolor="#ffffff"
     bordercolor="#666666"
     borderopacity="1"
     objecttolerance="10"
     gridtolerance="10"
     guidetolerance="10"
     inkscape:pageopacity="0"
     inkscape:pageshadow="2"
     inkscape:window-width="3840"
     inkscape:window-height="2066"
     id="namedview266"
     showgrid="false"
     inkscape:zoom="4.8625308"
     inkscape:cx="215.31098"
     inkscape:cy="119.99437"
     inkscape:window-x="-11"
     inkscape:window-y="-11"
     inkscape:window-maximized="1"
     inkscape:current-layer="svg264"
     inkscape:document-rotation="0" />
  <g
     id="g262"
     transform="translate(0.92544393,2.9575933)"
     style="enable-background:new">
    <path
       transform="matrix(1,0,0,-1,200.197,177.874)"
       stroke-miterlimit="10"
       d="M 0,0 V 42.5202 H 28.3468 V 0 Z m 28.3468,42.5202"
       id="path2"
       inkscape:connector-curvature="0"
       style="fill:none;stroke:#ffffff;stroke-width:1.41731;stroke-linecap:butt;stroke-linejoin:miter;stroke-miterlimit:10" />
    <text
       xml:space="preserve"
       transform="translate(1.5258789e-5,205.914)"
       font-size="9.9626"
       id="text6"
       style="font-size:9.9626px;font-family:CMR10;fill:#ffffff"><tspan
         y="-60.069"
         x="203.23"
         id="tspan4">D</tspan></text>
    <path
       transform="matrix(1,0,0,-1,200.197,177.874)"
       stroke-miterlimit="10"
       d="M 0,17.71674 7.08669,21.26009 0,24.80342"
       id="path8"
       inkscape:connector-curvature="0"
       style="fill:none;stroke:#ffffff;stroke-width:1.41731;stroke-linecap:butt;stroke-linejoin:miter;stroke-miterlimit:10" />
    <text
       xml:space="preserve"
       transform="translate(1.5258789e-5,205.91399)"
       font-size="9.9626"
       font-style="italic"
       id="text12"
       style="font-style:italic;font-size:9.9626px;font-family:CMMI10;fill:#ffffff"><tspan
         y="-62.297001"
         x="217.59"
         id="tspan10">q</tspan></text>
    <text
       xml:space="preserve"
       transform="translate(1.5258789e-5,205.91399)"
       font-size="6.9738"
       id="text16"
       style="font-size:6.9738px;font-family:CMR7;fill:#ffffff"><tspan
         y="-60.802002"
         x="222.037"
         id="tspan14">1</tspan></text>
    <path
       transform="matrix(1,0,0,-1,200.197,177.874)"
       stroke-miterlimit="10"
       d="m 32.59865,7.08669 c 0,1.17411 -0.9518,2.12591 -2.12593,2.12591 -1.17412,0 -2.12592,-0.9518 -2.12592,-2.12591 0,-1.17414 0.9518,-2.12592 2.12592,-2.12592 1.17413,0 2.12593,0.95178 2.12593,2.12592 z m -2.12593,0"
       id="path18"
       inkscape:connector-curvature="0"
       style="fill:none;stroke:#ffffff;stroke-width:1.41731;stroke-linecap:butt;stroke-linejoin:miter;stroke-miterlimit:10" />
    <text
       xml:space="preserve"
       transform="translate(1.5258789e-5,205.91399)"
       font-size="9.9626"
       font-style="italic"
       id="text26"
       style="font-style:italic;font-size:9.9626px;font-family:CMMI10;fill:#ffffff"><tspan
         y="-33.950001"
         x="217.59"
         id="tspan24">q</tspan></text>
    <text
       xml:space="preserve"
       transform="translate(1.5258789e-5,205.91399)"
       font-size="6.9738"
       id="text30"
       style="font-size:6.9738px;font-family:CMR7;fill:#ffffff"><tspan
         y="-32.456001"
         x="222.037"
         id="tspan28">1</tspan></text>
    <path
       transform="matrix(1,0,0,-1,200.197,177.874)"
       stroke-miterlimit="10"
       d="m 0,85.04045 v 42.5202 h 28.3468 v -42.5202 z m 28.3468,42.5202"
       id="path32"
       inkscape:connector-curvature="0"
       style="fill:none;stroke:#ffffff;stroke-width:1.41731;stroke-linecap:butt;stroke-linejoin:miter;stroke-miterlimit:10" />
    <text
       xml:space="preserve"
       transform="translate(1.5258789e-5,205.914)"
       font-size="9.9626"
       id="text36"
       style="font-size:9.9626px;font-family:CMR10;fill:#ffffff"><tspan
         y="-145.108"
         x="203.23"
         id="tspan34">D</tspan></text>
    <path
       transform="matrix(1,0,0,-1,200.197,177.874)"
       stroke-miterlimit="10"
       d="M 0,102.7572 7.08669,106.30054 0,109.84387"
       id="path38"
       inkscape:connector-curvature="0"
       style="fill:none;stroke:#ffffff;stroke-width:1.41731;stroke-linecap:butt;stroke-linejoin:miter;stroke-miterlimit:10" />
    <text
       xml:space="preserve"
       transform="translate(1.5258789e-5,205.914)"
       font-size="9.9626"
       font-style="italic"
       id="text42"
       style="font-style:italic;font-size:9.9626px;font-family:CMMI10;fill:#ffffff"><tspan
         y="-147.336"
         x="217.59"
         id="tspan40">q</tspan></text>
    <text
       xml:space="preserve"
       transform="translate(1.5258789e-5,205.914)"
       font-size="6.9738"
       id="text46"
       style="font-size:6.9738px;font-family:CMR7;fill:#ffffff"><tspan
         y="-145.842"
         x="222.037"
         id="tspan44">2</tspan></text>
    <path
       transform="matrix(1,0,0,-1,200.197,177.874)"
       stroke-miterlimit="10"
       d="m 32.59865,92.12714 c 0,1.17413 -0.9518,2.12593 -2.12593,2.12593 -1.17412,0 -2.12592,-0.9518 -2.12592,-2.12593 0,-1.17412 0.9518,-2.12592 2.12592,-2.12592 1.17413,0 2.12593,0.9518 2.12593,2.12592 z m -2.12593,0"
       id="path48"
       inkscape:connector-curvature="0"
       style="fill:none;stroke:#ffffff;stroke-width:1.41731;stroke-linecap:butt;stroke-linejoin:miter;stroke-miterlimit:10" />
    <text
       xml:space="preserve"
       transform="translate(1.5258789e-5,205.914)"
       font-size="9.9626"
       font-style="italic"
       id="text56"
       style="font-style:italic;font-size:9.9626px;font-family:CMMI10;fill:#ffffff"><tspan
         y="-118.989"
         x="217.59"
         id="tspan54">q</tspan></text>
    <text
       xml:space="preserve"
       transform="translate(1.5258789e-5,205.914)"
       font-size="6.9738"
       id="text60"
       style="font-size:6.9738px;font-family:CMR7;fill:#ffffff"><tspan
         y="-117.495"
         x="222.037"
         id="tspan58">2</tspan></text>
    <path
       transform="matrix(1,0,0,-1,200.197,177.874)"
       stroke-miterlimit="10"
       d="M -56.69363,14.17339 V 56.6936 l 14.1734,-7.08671 v -28.3468 z"
       id="path62"
       inkscape:connector-curvature="0"
       style="fill:none;stroke:#ffffff;stroke-width:1.41731;stroke-linecap:butt;stroke-linejoin:miter;stroke-miterlimit:10" />
    <text
       xml:space="preserve"
       transform="translate(0,205.914)"
       font-size="8.9664"
       id="text66"
       style="font-size:8.9664px;font-family:CMR9;fill:#ffffff"><tspan
         y="-53.497002"
         x="148.287"
         id="tspan64">1</tspan></text>
    <text
       xml:space="preserve"
       transform="translate(0,205.91399)"
       font-size="8.9664"
       id="text70"
       style="font-size:8.9664px;font-family:CMR9;fill:#ffffff"><tspan
         y="-67.669998"
         x="148.287"
         id="tspan68">0</tspan></text>
    <path
       transform="matrix(1,0,0,-1,200.197,177.874)"
       stroke-miterlimit="10"
       d="m -56.69363,99.21387 v 42.5202 l 14.1734,-7.0867 v -28.34682 z"
       id="path72"
       inkscape:connector-curvature="0"
       style="fill:none;stroke:#ffffff;stroke-width:1.41731;stroke-linecap:butt;stroke-linejoin:miter;stroke-miterlimit:10" />
    <text
       xml:space="preserve"
       transform="translate(0,205.91399)"
       font-size="8.9664"
       id="text76"
       style="font-size:8.9664px;font-family:CMR9;fill:#ffffff"><tspan
         y="-138.536"
         x="148.287"
         id="tspan74">1</tspan></text>
    <text
       xml:space="preserve"
       transform="translate(0,205.914)"
       font-size="8.9664"
       id="text80"
       style="font-size:8.9664px;font-family:CMR9;fill:#ffffff"><tspan
         y="-152.709"
         x="148.287"
         id="tspan78">0</tspan></text>
    <path
       transform="matrix(1,0,0,-1,200.197,177.874)"
       stroke-miterlimit="10"
       d="m -113.38728,106.30057 v 42.52022 l 14.1734,-7.08672 v -28.3468 z"
       id="path82"
       inkscape:connector-curvature="0"
       style="fill:none;stroke:#ffffff;stroke-width:1.41731;stroke-linecap:butt;stroke-linejoin:miter;stroke-miterlimit:10" />
    <text
       xml:space="preserve"
       transform="translate(7.6293949e-6,205.914)"
       font-size="8.9664"
       id="text86"
       style="font-size:8.9664px;font-family:CMR9;fill:#ffffff"><tspan
         y="-145.623"
         x="91.594002"
         id="tspan84">1</tspan></text>
    <text
       xml:space="preserve"
       transform="translate(7.6293949e-6,205.914)"
       font-size="8.9664"
       id="text90"
       style="font-size:8.9664px;font-family:CMR9;fill:#ffffff"><tspan
         y="-159.79601"
         x="91.594002"
         id="tspan88">0</tspan></text>
    <path
       transform="matrix(1,0,0,-1,200.197,177.874)"
       stroke-miterlimit="10"
       d="m -170.08092,113.38728 v 42.52021 l 14.1734,-7.0867 v -28.34682 z"
       id="path92"
       inkscape:connector-curvature="0"
       style="fill:none;stroke:#ffffff;stroke-width:1.41731;stroke-linecap:butt;stroke-linejoin:miter;stroke-miterlimit:10" />
    <text
       xml:space="preserve"
       transform="translate(0,205.914)"
       font-size="8.9664"
       id="text96"
       style="font-size:8.9664px;font-family:CMR9;fill:#ffffff"><tspan
         y="-152.709"
         x="34.901001"
         id="tspan94">1</tspan></text>
    <text
       xml:space="preserve"
       transform="translate(0,205.91399)"
       font-size="8.9664"
       id="text100"
       style="font-size:8.9664px;font-family:CMR9;fill:#ffffff"><tspan
         y="-166.883"
         x="34.901001"
         id="tspan98">0</tspan></text>
    <path
       transform="matrix(1,0,0,-1,200.197,177.874)"
       stroke-miterlimit="10"
       d="m -170.08092,42.52022 v 42.5202 l 14.1734,-7.0867 V 49.6069 Z"
       id="path102"
       inkscape:connector-curvature="0"
       style="fill:none;stroke:#ffffff;stroke-width:1.41731;stroke-linecap:butt;stroke-linejoin:miter;stroke-miterlimit:10" />
    <text
       xml:space="preserve"
       transform="translate(0,205.914)"
       font-size="8.9664"
       id="text106"
       style="font-size:8.9664px;font-family:CMR9;fill:#ffffff"><tspan
         y="-81.843002"
         x="34.901001"
         id="tspan104">1</tspan></text>
    <text
       xml:space="preserve"
       transform="translate(0,205.914)"
       font-size="8.9664"
       id="text110"
       style="font-size:8.9664px;font-family:CMR9;fill:#ffffff"><tspan
         y="-96.016998"
         x="34.901001"
         id="tspan108">0</tspan></text>
    <path
       transform="matrix(1,0,0,-1,200.197,177.874)"
       stroke-miterlimit="10"
       d="M -42.5202,35.43349 H 0"
       id="path112"
       inkscape:connector-curvature="0"
       style="fill:none;stroke:#ffffff;stroke-width:1.41731;stroke-linecap:butt;stroke-linejoin:miter;stroke-miterlimit:10" />
    <text
       xml:space="preserve"
       transform="translate(1.5258789e-5,205.91399)"
       font-size="8.9664"
       font-style="italic"
       id="text116"
       style="font-style:italic;font-size:8.9664px;font-family:CMMI9;fill:#ffffff"><tspan
         y="-68.498001"
         x="161.70599"
         id="tspan114">D</tspan></text>
    <text
       xml:space="preserve"
       transform="translate(1.5258789e-5,205.91399)"
       font-size="5.9776"
       id="text120"
       style="font-size:5.9776px;font-family:CMR6;fill:#ffffff"><tspan
         y="-67.501999"
         x="169.306"
         id="tspan118">1</tspan></text>
    <path
       transform="matrix(1,0,0,-1,200.197,177.874)"
       stroke-miterlimit="10"
       d="M -49.6069,17.71674 V 3.54335"
       id="path122"
       inkscape:connector-curvature="0"
       style="fill:none;stroke:#ffffff;stroke-width:1.41731;stroke-linecap:butt;stroke-linejoin:miter;stroke-miterlimit:10" />
    <text
       xml:space="preserve"
       transform="translate(0,205.914)"
       font-size="9.9626"
       font-style="italic"
       id="text126"
       style="font-style:italic;font-size:9.9626px;font-family:CMMI10;fill:#ffffff"><tspan
         y="-20.746"
         x="146.77"
         id="tspan124">R</tspan></text>
    <path
       transform="matrix(1,0,0,-1,200.197,177.874)"
       stroke-miterlimit="10"
       d="M -56.69362,28.3468 H -70.867"
       id="path128"
       inkscape:connector-curvature="0"
       style="fill:none;stroke:#ffffff;stroke-width:1.41731;stroke-linecap:butt;stroke-linejoin:miter;stroke-miterlimit:10" />
    <text
       xml:space="preserve"
       transform="translate(7.6293949e-6,205.91399)"
       font-size="9.9626"
       id="text132"
       style="font-size:9.9626px;font-family:CMR10;fill:#ffffff"><tspan
         y="-53.175999"
         x="120.32"
         id="tspan130">0</tspan></text>
    <path
       transform="matrix(1,0,0,-1,200.197,177.874)"
       stroke-miterlimit="10"
       d="M -56.69362,42.5202 H -70.867 V 63.7803 H 42.52022 V 7.08669"
       id="path134"
       inkscape:connector-curvature="0"
       style="fill:none;stroke:#ffffff;stroke-width:1.41731;stroke-linecap:butt;stroke-linejoin:miter;stroke-miterlimit:10" />
    <path
       transform="matrix(1,0,0,-1,200.197,177.874)"
       d="m 44.29189,7.08669 c 0,0.97847 -0.7932,1.77166 -1.77167,1.77166 -0.97849,0 -1.77167,-0.79319 -1.77167,-1.77166 0,-0.97847 0.79318,-1.77167 1.77167,-1.77167 0.97847,0 1.77167,0.7932 1.77167,1.77167 z m -1.77167,0"
       id="path136"
       inkscape:connector-curvature="0"
       style="fill:#ffffff;fill-opacity:1" />
    <path
       transform="matrix(1,0,0,-1,200.197,177.874)"
       stroke-miterlimit="10"
       d="M -42.5202,120.47392 H 0"
       id="path138"
       inkscape:connector-curvature="0"
       style="fill:none;stroke:#ffffff;stroke-width:1.41731;stroke-linecap:butt;stroke-linejoin:miter;stroke-miterlimit:10" />
    <text
       xml:space="preserve"
       transform="translate(1.5258789e-5,205.914)"
       font-size="8.9664"
       font-style="italic"
       id="text142"
       style="font-style:italic;font-size:8.9664px;font-family:CMMI9;fill:#ffffff"><tspan
         y="-153.537"
         x="161.70599"
         id="tspan140">D</tspan></text>
    <text
       xml:space="preserve"
       transform="translate(1.5258789e-5,205.914)"
       font-size="5.9776"
       id="text146"
       style="font-size:5.9776px;font-family:CMR6;fill:#ffffff"><tspan
         y="-152.541"
         x="169.306"
         id="tspan144">2</tspan></text>
    <path
       transform="matrix(1,0,0,-1,200.197,177.874)"
       stroke-miterlimit="10"
       d="M -49.6069,102.75717 V 88.58377"
       id="path148"
       inkscape:connector-curvature="0"
       style="fill:none;stroke:#ffffff;stroke-width:1.41731;stroke-linecap:butt;stroke-linejoin:miter;stroke-miterlimit:10" />
    <text
       xml:space="preserve"
       transform="translate(0,205.914)"
       font-size="9.9626"
       font-style="italic"
       id="text152"
       style="font-style:italic;font-size:9.9626px;font-family:CMMI10;fill:#ffffff"><tspan
         y="-105.785"
         x="146.77"
         id="tspan150">R</tspan></text>
    <path
       transform="matrix(1,0,0,-1,200.197,177.874)"
       stroke-miterlimit="10"
       d="M -56.69362,113.38724 H -70.867"
       id="path154"
       inkscape:connector-curvature="0"
       style="fill:none;stroke:#ffffff;stroke-width:1.41731;stroke-linecap:butt;stroke-linejoin:miter;stroke-miterlimit:10" />
    <text
       xml:space="preserve"
       transform="translate(7.6293949e-6,205.91399)"
       font-size="9.9626"
       id="text158"
       style="font-size:9.9626px;font-family:CMR10;fill:#ffffff"><tspan
         y="-138.215"
         x="120.32"
         id="tspan156">0</tspan></text>
    <path
       transform="matrix(1,0,0,-1,200.197,177.874)"
       stroke-miterlimit="10"
       d="m -99.21382,127.56062 h 42.5202"
       id="path160"
       inkscape:connector-curvature="0"
       style="fill:none;stroke:#ffffff;stroke-width:1.41731;stroke-linecap:butt;stroke-linejoin:miter;stroke-miterlimit:10" />
    <path
       transform="matrix(1,0,0,-1,200.197,177.874)"
       stroke-miterlimit="10"
       d="M -106.30052,109.84387 V 95.67049"
       id="path162"
       inkscape:connector-curvature="0"
       style="fill:none;stroke:#ffffff;stroke-width:1.41731;stroke-linecap:butt;stroke-linejoin:miter;stroke-miterlimit:10" />
    <text
       xml:space="preserve"
       transform="translate(7.6293949e-6,205.914)"
       font-size="9.9626"
       font-style="italic"
       id="text166"
       style="font-style:italic;font-size:9.9626px;font-family:CMMI10;fill:#ffffff"><tspan
         y="-112.872"
         x="89.885002"
         id="tspan164">V</tspan></text>
    <path
       transform="matrix(1,0,0,-1,200.197,177.874)"
       stroke-miterlimit="10"
       d="m -155.90744,134.64734 h 42.5202"
       id="path168"
       inkscape:connector-curvature="0"
       style="fill:none;stroke:#ffffff;stroke-width:1.41731;stroke-linecap:butt;stroke-linejoin:miter;stroke-miterlimit:10" />
    <path
       transform="matrix(1,0,0,-1,200.197,177.874)"
       stroke-miterlimit="10"
       d="m -162.99414,116.93057 v -14.1734"
       id="path170"
       inkscape:connector-curvature="0"
       style="fill:none;stroke:#ffffff;stroke-width:1.41731;stroke-linecap:butt;stroke-linejoin:miter;stroke-miterlimit:10" />
    <text
       xml:space="preserve"
       transform="translate(3.8146974e-6,205.914)"
       font-size="9.9626"
       font-style="italic"
       id="text174"
       style="font-style:italic;font-size:9.9626px;font-family:CMMI10;fill:#ffffff"><tspan
         y="-122.477"
         x="32.745998"
         id="tspan172">q</tspan></text>
    <text
       xml:space="preserve"
       transform="translate(3.8146974e-6,205.914)"
       font-size="6.9738"
       id="text178"
       style="font-size:6.9738px;font-family:CMR7;fill:#ffffff"><tspan
         y="-120.98199"
         x="37.194"
         id="tspan176">1</tspan></text>
    <path
       transform="matrix(1,0,0,-1,200.197,177.874)"
       stroke-miterlimit="10"
       d="m -170.08086,127.56062 h -14.17338"
       id="path180"
       inkscape:connector-curvature="0"
       style="fill:none;stroke:#ffffff;stroke-width:1.41731;stroke-linecap:butt;stroke-linejoin:miter;stroke-miterlimit:10" />
    <path
       transform="matrix(1,0,0,-1,200.197,177.874)"
       d="m -182.48258,127.56062 c 0,0.97849 -0.79319,1.77167 -1.77166,1.77167 -0.97849,0 -1.77169,-0.79318 -1.77169,-1.77167 0,-0.97847 0.7932,-1.77166 1.77169,-1.77166 0.97847,0 1.77166,0.79319 1.77166,1.77166 z m -1.77166,0"
       id="path182"
       inkscape:connector-curvature="0"
       style="fill:#ffffff;fill-opacity:1" />
    <path
       transform="matrix(1,0,0,-1,200.197,177.874)"
       stroke-miterlimit="10"
       d="m -170.08086,141.73404 h -28.3468"
       id="path184"
       inkscape:connector-curvature="0"
       style="fill:none;stroke:#ffffff;stroke-width:1.41731;stroke-linecap:butt;stroke-linejoin:miter;stroke-miterlimit:10" />
    <path
       transform="matrix(1,0,0,-1,200.197,177.874)"
       d="m -196.65599,141.73404 c 0,0.97849 -0.7932,1.77166 -1.77167,1.77166 -0.97849,0 -1.77167,-0.79317 -1.77167,-1.77166 0,-0.97847 0.79318,-1.77167 1.77167,-1.77167 0.97847,0 1.77167,0.7932 1.77167,1.77167 z m -1.77167,0"
       id="path186"
       inkscape:connector-curvature="0"
       style="fill:#ffffff;fill-opacity:1" />
    <path
       transform="matrix(1,0,0,-1,200.197,177.874)"
       stroke-miterlimit="10"
       d="m -155.90744,63.7803 h 21.2601 v 56.69362 h 21.2601"
       id="path188"
       inkscape:connector-curvature="0"
       style="fill:none;stroke:#ffffff;stroke-width:1.41731;stroke-linecap:butt;stroke-linejoin:miter;stroke-miterlimit:10" />
    <path
       transform="matrix(1,0,0,-1,200.197,177.874)"
       stroke-miterlimit="10"
       d="M -162.99414,46.06355 V 31.89015"
       id="path190"
       inkscape:connector-curvature="0"
       style="fill:none;stroke:#ffffff;stroke-width:1.41731;stroke-linecap:butt;stroke-linejoin:miter;stroke-miterlimit:10" />
    <text
       xml:space="preserve"
       transform="translate(3.8146974e-6,205.914)"
       font-size="9.9626"
       font-style="italic"
       id="text194"
       style="font-style:italic;font-size:9.9626px;font-family:CMMI10;fill:#ffffff"><tspan
         y="-51.611"
         x="32.745998"
         id="tspan192">q</tspan></text>
    <text
       xml:space="preserve"
       transform="translate(3.8146974e-6,205.914)"
       font-size="6.9738"
       id="text198"
       style="font-size:6.9738px;font-family:CMR7;fill:#ffffff"><tspan
         y="-50.116001"
         x="37.194"
         id="tspan196">1</tspan></text>
    <path
       transform="matrix(1,0,0,-1,200.197,177.874)"
       stroke-miterlimit="10"
       d="m -170.08086,70.867 h -14.17338 V 177.16754 H 42.52022 v -56.69362"
       id="path200"
       inkscape:connector-curvature="0"
       style="fill:none;stroke:#ffffff;stroke-width:1.41731;stroke-linecap:butt;stroke-linejoin:miter;stroke-miterlimit:10" />
    <path
       transform="matrix(1,0,0,-1,200.197,177.874)"
       d="m 44.29189,120.47392 c 0,0.97848 -0.7932,1.77167 -1.77167,1.77167 -0.97849,0 -1.77167,-0.79319 -1.77167,-1.77167 0,-0.97847 0.79318,-1.77166 1.77167,-1.77166 0.97847,0 1.77167,0.79319 1.77167,1.77166 z m -1.77167,0"
       id="path202"
       inkscape:connector-curvature="0"
       style="fill:#ffffff;fill-opacity:1" />
    <path
       transform="matrix(1,0,0,-1,200.197,177.874)"
       stroke-miterlimit="10"
       d="m -170.08086,56.69362 h -28.3468 V 162.99414 H 56.69362 V 92.12712"
       id="path204"
       inkscape:connector-curvature="0"
       style="fill:none;stroke:#ffffff;stroke-width:1.41731;stroke-linecap:butt;stroke-linejoin:miter;stroke-miterlimit:10" />
    <path
       transform="matrix(1,0,0,-1,200.197,177.874)"
       d="m 58.46529,92.12712 c 0,0.97848 -0.7932,1.77168 -1.77167,1.77168 -0.97849,0 -1.77168,-0.7932 -1.77168,-1.77168 0,-0.97847 0.79319,-1.77167 1.77168,-1.77167 0.97847,0 1.77167,0.7932 1.77167,1.77167 z m -1.77167,0"
       id="path206"
       inkscape:connector-curvature="0"
       style="fill:#ffffff;fill-opacity:1" />
    <path
       stroke-miterlimit="10"
       d="M 200.197,156.6139 H 185.66915"
       id="path208"
       inkscape:connector-curvature="0"
       style="fill:none;stroke:#ffffff;stroke-width:1.43475;stroke-linecap:butt;stroke-linejoin:miter;stroke-miterlimit:10;stroke-dasharray:none" />
    <path
       transform="matrix(1,0,0,-1,200.197,177.874)"
       d="m -12.40172,21.2601 c 0,0.97847 -0.7932,1.77167 -1.77167,1.77167 -0.97848,0 -1.77166,-0.7932 -1.77166,-1.77167 0,-0.97848 0.79318,-1.77167 1.77166,-1.77167 0.97847,0 1.77167,0.79319 1.77167,1.77167 z m -1.77167,0"
       id="path210"
       inkscape:connector-curvature="0"
       style="fill:#ffffff;fill-opacity:1" />
    <path
       transform="matrix(1,0,0,-1,200.197,177.874)"
       stroke-miterlimit="10"
       d="M 0,106.30052 H -14.17339 V -21.2601 h -85.04043"
       id="path212"
       inkscape:connector-curvature="0"
       style="fill:none;stroke:#ffffff;stroke-width:1.41731;stroke-linecap:butt;stroke-linejoin:miter;stroke-miterlimit:10" />
    <text
       xml:space="preserve"
       transform="translate(7.6293949e-6,205.91399)"
       font-size="9.9626"
       id="text216"
       style="font-size:9.9626px;font-family:CMR10;fill:#ffffff"><tspan
         y="-3.3210001"
         x="76.475998 82.842102 87.823402 93.083656"
         id="tspan214">Takt</tspan></text>
    <path
       transform="matrix(1,0,0,-1,200.197,177.874)"
       stroke-miterlimit="10"
       d="M 28.3468,35.43349 H 70.867"
       id="path218"
       inkscape:connector-curvature="0"
       style="fill:none;stroke:#ffffff;stroke-width:1.41731;stroke-linecap:butt;stroke-linejoin:miter;stroke-miterlimit:10" />
    <text
       xml:space="preserve"
       transform="translate(0,205.91399)"
       font-size="9.9626"
       font-style="italic"
       id="text222"
       style="font-style:italic;font-size:9.9626px;font-family:CMMI10;fill:#ffffff"><tspan
         y="-62.297001"
         x="275.09201"
         id="tspan220">q</tspan></text>
    <text
       xml:space="preserve"
       transform="translate(0,205.91399)"
       font-size="6.9738"
       id="text226"
       style="font-size:6.9738px;font-family:CMR7;fill:#ffffff"><tspan
         y="-60.802002"
         x="279.54001"
         id="tspan224">1</tspan></text>
    <path
       transform="matrix(1,0,0,-1,200.197,177.874)"
       stroke-miterlimit="10"
       d="M 32.59865,7.08669 H 70.867"
       id="path228"
       inkscape:connector-curvature="0"
       style="fill:none;stroke:#ffffff;stroke-width:1.41731;stroke-linecap:butt;stroke-linejoin:miter;stroke-miterlimit:10" />
    <path
       transform="matrix(1,0,0,-1,275.092,167.27599)"
       stroke-miterlimit="10"
       d="M 0,0 H 8.917"
       id="path230"
       inkscape:connector-curvature="0"
       style="fill:none;stroke:#ffffff;stroke-width:0.398;stroke-linecap:butt;stroke-linejoin:miter;stroke-miterlimit:10" />
    <text
       xml:space="preserve"
       transform="translate(0,205.91399)"
       font-size="9.9626"
       font-style="italic"
       id="text234"
       style="font-style:italic;font-size:9.9626px;font-family:CMMI10;fill:#ffffff"><tspan
         y="-32.953999"
         x="275.09201"
         id="tspan232">q</tspan></text>
    <text
       xml:space="preserve"
       transform="translate(0,205.91399)"
       font-size="6.9738"
       id="text238"
       style="font-size:6.9738px;font-family:CMR7;fill:#ffffff"><tspan
         y="-31.459999"
         x="279.54001"
         id="tspan236">1</tspan></text>
    <path
       transform="matrix(1,0,0,-1,200.197,177.874)"
       stroke-miterlimit="10"
       d="M 28.3468,120.47392 H 70.867"
       id="path240"
       inkscape:connector-curvature="0"
       style="fill:none;stroke:#ffffff;stroke-width:1.41731;stroke-linecap:butt;stroke-linejoin:miter;stroke-miterlimit:10" />
    <text
       xml:space="preserve"
       transform="translate(0,205.914)"
       font-size="9.9626"
       font-style="italic"
       id="text244"
       style="font-style:italic;font-size:9.9626px;font-family:CMMI10;fill:#ffffff"><tspan
         y="-147.336"
         x="275.09201"
         id="tspan242">q</tspan></text>
    <text
       xml:space="preserve"
       transform="translate(0,205.914)"
       font-size="6.9738"
       id="text248"
       style="font-size:6.9738px;font-family:CMR7;fill:#ffffff"><tspan
         y="-145.842"
         x="279.54001"
         id="tspan246">2</tspan></text>
    <path
       transform="matrix(1,0,0,-1,200.197,177.874)"
       stroke-miterlimit="10"
       d="M 32.59865,92.1271 H 70.867"
       id="path250"
       inkscape:connector-curvature="0"
       style="fill:none;stroke:#ffffff;stroke-width:1.41731;stroke-linecap:butt;stroke-linejoin:miter;stroke-miterlimit:10" />
    <path
       transform="matrix(1,0,0,-1,275.092,82.23599)"
       stroke-miterlimit="10"
       d="M 0,0 H 8.917"
       id="path252"
       inkscape:connector-curvature="0"
       style="fill:none;stroke:#ffffff;stroke-width:0.398;stroke-linecap:butt;stroke-linejoin:miter;stroke-miterlimit:10" />
    <text
       xml:space="preserve"
       transform="translate(0,205.91399)"
       font-size="9.9626"
       font-style="italic"
       id="text256"
       style="font-style:italic;font-size:9.9626px;font-family:CMMI10;fill:#ffffff"><tspan
         y="-117.993"
         x="275.09201"
         id="tspan254">q</tspan></text>
    <text
       xml:space="preserve"
       transform="translate(0,205.91399)"
       font-size="6.9738"
       id="text260"
       style="font-size:6.9738px;font-family:CMR7;fill:#ffffff"><tspan
         y="-116.49899"
         x="279.54001"
         id="tspan258">2</tspan></text>
  </g>
  <path
     stroke-miterlimit="10"
     d="m 218.57349,169.0775 h 8.91701"
     id="path230-6"
     inkscape:connector-curvature="0"
     style="fill:none;stroke:#ffffff;stroke-width:0.398;stroke-linecap:butt;stroke-linejoin:miter;stroke-miterlimit:10;enable-background:new" />
  <path
     stroke-miterlimit="10"
     d="m 218.1879,84.168016 h 8.917"
     id="path230-7"
     inkscape:connector-curvature="0"
     style="fill:none;stroke:#ffffff;stroke-width:0.398;stroke-linecap:butt;stroke-linejoin:miter;stroke-miterlimit:10;enable-background:new" />
</svg>
