<?xml version="1.0" encoding="UTF-8" standalone="no"?>
<svg
   xmlns:dc="http://purl.org/dc/elements/1.1/"
   xmlns:cc="http://creativecommons.org/ns#"
   xmlns:rdf="http://www.w3.org/1999/02/22-rdf-syntax-ns#"
   xmlns:svg="http://www.w3.org/2000/svg"
   xmlns="http://www.w3.org/2000/svg"
   xmlns:sodipodi="http://sodipodi.sourceforge.net/DTD/sodipodi-0.dtd"
   xmlns:inkscape="http://www.inkscape.org/namespaces/inkscape"
   x="0"
   y="2706"
   width="512"
   height="512"
   viewBox="0 0 512 512"
   version="1.1"
   id="svg42"
   sodipodi:docname="latinFlag.svg"
   inkscape:version="0.92.3 (2405546, 2018-03-11)">
  <metadata
     id="metadata48">
    <rdf:RDF>
      <cc:Work
         rdf:about="">
        <dc:format>image/svg+xml</dc:format>
        <dc:type
           rdf:resource="http://purl.org/dc/dcmitype/StillImage" />
        <dc:title>ar copy 2</dc:title>
      </cc:Work>
    </rdf:RDF>
  </metadata>
  <defs
     id="defs46" />
  <sodipodi:namedview
     pagecolor="#ffffff"
     bordercolor="#666666"
     borderopacity="1"
     objecttolerance="10"
     gridtolerance="10"
     guidetolerance="10"
     inkscape:pageopacity="0"
     inkscape:pageshadow="2"
     inkscape:window-width="1920"
     inkscape:window-height="1125"
     id="namedview44"
     showgrid="false"
     inkscape:zoom="0.63211061"
     inkscape:cx="250.99126"
     inkscape:cy="379.59243"
     inkscape:window-x="1920"
     inkscape:window-y="0"
     inkscape:window-maximized="1"
     inkscape:current-layer="g40" />
  <title
     id="title2">ar copy 2</title>
  <g
     id="g40"
     style="fill:none;fill-rule:evenodd;stroke:none;stroke-width:1"
     transform="translate(0,446)">
    <circle
       style="fill:#ff4b4b;stroke:none;stroke-width:12.01694775;stroke-miterlimit:4;stroke-dasharray:none;stroke-opacity:1"
       id="path858"
       cx="256"
       cy="-190"
       r="256" />
    <g
       id="g38"
       transform="matrix(10.420136,0,0,10.420136,-165.40431,-544.85383)">
      <g
         id="g36">
        <g
           id="g34">
          <g
             id="g18">
            <g
               id="g16">
              <g
                 id="g14">
                <path
                   d="m 26.501,27.234 a 14.698,14.698 0 0 0 -0.342,3.163 c 0,1.343 0.18,2.643 0.519,3.879 m 5.169,7.709 a 14.582,14.582 0 0 0 8.957,3.058 c 3.881,0.517 7.134,2.478 9.758,5.88"
                   id="path8"
                   inkscape:connector-curvature="0"
                   style="stroke:#ffd300;stroke-width:2.64499998;stroke-linecap:round;stroke-linejoin:round" />
                <path
                   d="m 28.828,22.11 0.05,-0.578 a 6.452,6.452 0 0 1 6.99,-5.865 l 0.578,0.05 -0.05,0.58 a 6.452,6.452 0 0 1 -6.99,5.864 l -0.578,-0.05 z m -3.361,7.175 -0.602,-0.487 a 6.452,6.452 0 0 1 -0.953,-9.074 l 0.487,-0.602 0.602,0.488 a 6.452,6.452 0 0 1 0.953,9.074 z m 6.406,13.69 -0.737,0.24 a 6.452,6.452 0 0 1 -8.13,-4.143 l -0.238,-0.736 0.736,-0.24 a 6.452,6.452 0 0 1 8.13,4.143 z"
                   id="path10"
                   inkscape:connector-curvature="0"
                   style="fill:#ffd300" />
                <path
                   d="m 32.978,42.886 0.363,-0.683 a 6.452,6.452 0 0 0 -2.667,-8.726 l -0.684,-0.363 -0.363,0.683 a 6.452,6.452 0 0 0 2.667,8.726 z M 25.046,30.57 25.154,29.802 a 6.452,6.452 0 0 1 7.286,-5.49 l 0.767,0.107 -0.108,0.767 a 6.452,6.452 0 0 1 -7.286,5.49 l -0.767,-0.107 z"
                   id="path12"
                   inkscape:connector-curvature="0"
                   style="fill:#ffd300" />
              </g>
            </g>
          </g>
          <g
             id="g32">
            <g
               id="g30">
              <g
                 id="g28">
                <g
                   id="g26">
                  <path
                     d="m 55.499,27.234 c 0.224,1.018 0.342,2.077 0.342,3.163 0,1.343 -0.18,2.643 -0.519,3.879 m -5.169,7.709 a 14.582,14.582 0 0 1 -8.957,3.058 c -3.881,0.517 -7.134,2.478 -9.758,5.88"
                     id="path20"
                     inkscape:connector-curvature="0"
                     style="stroke:#ffd300;stroke-width:2.64499998;stroke-linecap:round;stroke-linejoin:round" />
                  <path
                     d="m 53.172,22.11 -0.05,-0.578 a 6.452,6.452 0 0 0 -6.99,-5.865 l -0.578,0.05 0.05,0.58 a 6.452,6.452 0 0 0 6.99,5.864 l 0.578,-0.05 z m 3.361,7.175 0.602,-0.487 a 6.452,6.452 0 0 0 0.953,-9.074 l -0.487,-0.602 -0.602,0.488 a 6.452,6.452 0 0 0 -0.953,9.074 z m -6.406,13.69 0.737,0.24 a 6.452,6.452 0 0 0 8.13,-4.143 l 0.238,-0.736 -0.736,-0.24 a 6.452,6.452 0 0 0 -8.13,4.143 z"
                     id="path22"
                     inkscape:connector-curvature="0"
                     style="fill:#ffd300" />
                  <path
                     d="m 49.022,42.886 -0.363,-0.683 a 6.452,6.452 0 0 1 2.667,-8.726 l 0.684,-0.363 0.363,0.683 a 6.452,6.452 0 0 1 -2.667,8.726 z M 56.954,30.57 56.846,29.802 a 6.452,6.452 0 0 0 -7.286,-5.49 l -0.767,0.107 0.108,0.767 a 6.452,6.452 0 0 0 7.286,5.49 l 0.767,-0.107 z"
                     id="path24"
                     inkscape:connector-curvature="0"
                     style="fill:#ffd300" />
                </g>
              </g>
            </g>
          </g>
        </g>
      </g>
    </g>
  </g>
</svg>
